<svg xmlns="http://www.w3.org/2000/svg" xmlns:xlink="http://www.w3.org/1999/xlink" width="500" zoomAndPan="magnify" viewBox="0 0 375 374.999991" height="500" preserveAspectRatio="xMidYMid meet" version="1.0"><defs><clipPath id="ba6e5a1abd"><path d="M 187.5 0 C 83.945312 0 0 83.945312 0 187.5 C 0 291.054688 83.945312 375 187.5 375 C 291.054688 375 375 291.054688 375 187.5 C 375 83.945312 291.054688 0 187.5 0 Z M 187.5 0 " clip-rule="nonzero"/></clipPath><clipPath id="7220aaa8e5"><path d="M 0 0 L 375 0 L 375 375 L 0 375 Z M 0 0 " clip-rule="nonzero"/></clipPath><clipPath id="249e9b479e"><path d="M 187.5 0 C 83.945312 0 0 83.945312 0 187.5 C 0 291.054688 83.945312 375 187.5 375 C 291.054688 375 375 291.054688 375 187.5 C 375 83.945312 291.054688 0 187.5 0 Z M 187.5 0 " clip-rule="nonzero"/></clipPath><clipPath id="37eae2442f"><rect x="0" width="375" y="0" height="375"/></clipPath><clipPath id="b74479a8ef"><path d="M 59.578125 98.359375 L 315.796875 98.359375 L 315.796875 322.226562 L 59.578125 322.226562 Z M 59.578125 98.359375 " clip-rule="nonzero"/></clipPath><clipPath id="13cfb99567"><path d="M 187.5 322.226562 L 315.421875 98.359375 L 59.578125 98.359375 Z M 187.5 322.226562 " clip-rule="nonzero"/></clipPath><clipPath id="b8c8a32cd9"><path d="M 0.578125 0.359375 L 256.601562 0.359375 L 256.601562 224.226562 L 0.578125 224.226562 Z M 0.578125 0.359375 " clip-rule="nonzero"/></clipPath><clipPath id="6f9d371d70"><path d="M 128.5 224.226562 L 256.421875 0.359375 L 0.578125 0.359375 Z M 128.5 224.226562 " clip-rule="nonzero"/></clipPath><clipPath id="032bc3add9"><rect x="0" width="257" y="0" height="225"/></clipPath></defs><g clip-path="url(#ba6e5a1abd)"><g transform="matrix(1, 0, 0, 1, 0, 0)"><g clip-path="url(#37eae2442f)"><g clip-path="url(#7220aaa8e5)"><g clip-path="url(#249e9b479e)"><rect x="-82.5" width="540" fill="#140000" height="539.999987" y="-82.499998" fill-opacity="1"/></g></g></g></g></g><g clip-path="url(#b74479a8ef)"><g clip-path="url(#13cfb99567)"><g transform="matrix(1, 0, 0, 1, 59, 98)"><g clip-path="url(#032bc3add9)"><g clip-path="url(#b8c8a32cd9)"><g clip-path="url(#6f9d371d70)"><path fill="#ffffff" d="M 0.578125 0.359375 L 256.796875 0.359375 L 256.796875 224.226562 L 0.578125 224.226562 Z M 0.578125 0.359375 " fill-opacity="1" fill-rule="nonzero"/></g></g></g></g></g></g></svg>